<?xml version="1.0" encoding="UTF-8" standalone="no"?>
<svg
   xmlns:dc="http://purl.org/dc/elements/1.1/"
   xmlns:cc="http://creativecommons.org/ns#"
   xmlns:rdf="http://www.w3.org/1999/02/22-rdf-syntax-ns#"
   xmlns:svg="http://www.w3.org/2000/svg"
   xmlns="http://www.w3.org/2000/svg"
   xmlns:sodipodi="http://sodipodi.sourceforge.net/DTD/sodipodi-0.dtd"
   xmlns:inkscape="http://www.inkscape.org/namespaces/inkscape"
   width="16.695356"
   height="16.694441"
   class="bi bi-question-diamond-fill"
   viewBox="0 0 16.695356 16.694441"
   version="1.1"
   id="svg4"
   sodipodi:docname="question-diamond-fill.svg"
   style="fill:#ffff00"
   inkscape:version="0.92.5 (2060ec1f9f, 2020-04-08)">
  <metadata
     id="metadata10">
    <rdf:RDF>
      <cc:Work
         rdf:about="">
        <dc:format>image/svg+xml</dc:format>
        <dc:type
           rdf:resource="http://purl.org/dc/dcmitype/StillImage" />
      </cc:Work>
    </rdf:RDF>
  </metadata>
  <defs
     id="defs8" />
  <sodipodi:namedview
     pagecolor="#ffffff"
     bordercolor="#666666"
     borderopacity="1"
     objecttolerance="10"
     gridtolerance="10"
     guidetolerance="10"
     inkscape:pageopacity="0"
     inkscape:pageshadow="2"
     inkscape:window-width="1920"
     inkscape:window-height="1024"
     id="namedview6"
     showgrid="false"
     inkscape:zoom="15.909557"
     inkscape:cx="6.023658"
     inkscape:cy="-2.3173565"
     inkscape:window-x="0"
     inkscape:window-y="28"
     inkscape:window-maximized="1"
     inkscape:current-layer="svg4" />
  <path
     d="m 9.3966781,0.78276189 c -0.58,-0.58 -1.52,-0.58 -2.1,0 l -6.514,6.51500001 c -0.58,0.58 -0.58,1.519 0,2.098 l 6.516,6.5160001 c 0.58,0.58 1.519,0.58 2.098,0 L 15.912678,9.3957619 c 0.58,-0.58 0.58,-1.519 0,-2.098 z m -3.555,5.59800001 a 0.237,0.237 0 0 1 -0.24,-0.247 c 0.095,-1.695 1.482,-2.286 2.75,-2.286 1.396,0 2.6719999,0.73 2.6719999,2.24 0,1.08 -0.635,1.594 -1.2439999,2.057 -0.737,0.559 -1.01,0.768 -1.01,1.486 v 0.105 a 0.25,0.25 0 0 1 -0.25,0.25 h -0.81 a 0.25,0.25 0 0 1 -0.25,-0.246 l -0.004,-0.217 c -0.038,-0.927 0.495,-1.498 1.168,-1.987 0.59,-0.444 0.965,-0.736 0.965,-1.371 0,-0.825 -0.628,-1.168 -1.314,-1.168 -0.803,0 -1.253,0.478 -1.342,1.134 -0.018,0.137 -0.128,0.25 -0.266,0.25 z m 2.325,6.4430001 c -0.584,0 -1.009,-0.394 -1.009,-0.927 0,-0.552 0.425,-0.94 1.01,-0.94 0.609,0 1.028,0.388 1.028,0.94 0,0.533 -0.42,0.927 -1.029,0.927 z"
     id="path2"
     style="fill:#9e5050;fill-opacity:1;stroke:none;stroke-width:0.69999999;stroke-miterlimit:4;stroke-dasharray:none;stroke-opacity:1"
     inkscape:connector-curvature="0" />
</svg>
